<svg id="Layer_5" enable-background="new 0 0 64 64" height="50" viewBox="0 0 64 64" width="50" xmlns="http://www.w3.org/2000/svg"><g><g><g><path d="m16.68 22h-14.68v-4c0-2.21 1.79-4 4-4h6.04.01c.23 2.58 1.35 4.91 3.07 6.67.47.49.99.94 1.56 1.33z" fill="#969faa"/></g><g><path d="m6 62c-2.21 0-4-1.79-4-4v-4h28v4c0 2.21-1.79 4-4 4z" fill="#969faa"/></g><g><path d="m30 21.49v32.51h-28v-32h14.68c1.78 1.26 3.96 2 6.32 2 2.66 0 5.1-.94 7-2.51z" fill="#69d6f4"/></g><g><circle cx="51" cy="41" fill="#e6e9ed" r="11"/></g><g><circle cx="51" cy="13" fill="#e6e9ed" r="11"/></g><g><circle cx="23" cy="13" fill="#e6e9ed" r="11"/></g><g><path d="m23 14c3.96 0 7.24 2.88 7.88 6.67-.27.29-.57.56-.88.82-1.9 1.57-4.34 2.51-7 2.51-2.36 0-4.54-.74-6.32-2-.57-.39-1.09-.84-1.56-1.33.64-3.79 3.92-6.67 7.88-6.67z" fill="#b4dd7f"/></g><g><path d="m58.88 20.67c-1.99 2.06-4.78 3.33-7.88 3.33s-5.89-1.27-7.88-3.33c.64-3.79 3.92-6.67 7.88-6.67s7.24 2.88 7.88 6.67z" fill="#fcd770"/></g><g><path d="m58.88 48.67c-1.99 2.06-4.78 3.33-7.88 3.33s-5.89-1.27-7.88-3.33c.64-3.79 3.92-6.67 7.88-6.67s7.24 2.88 7.88 6.67z" fill="#ff826e"/></g><g><circle cx="51" cy="38" fill="#f0d0b4" r="4"/></g><g><circle cx="51" cy="10" fill="#f0d0b4" r="4"/></g><g><circle cx="23" cy="10" fill="#f0d0b4" r="4"/></g><g><path d="m21.29 40.29c.46.46.71 1.07.71 1.71s-.25 1.25-.71 1.71l-1.39 1.39c-.58.58-1.36.9-2.17.9-.48 0-.95-.11-1.38-.32l-1.1-.56c-2.02-1-3.83-2.35-5.35-3.97-1.52-1.61-2.76-3.49-3.65-5.57-.17-.38-.25-.79-.25-1.21v-.1c0-.81.32-1.59.9-2.17l1.39-1.39c.46-.46 1.07-.71 1.71-.71s1.25.25 1.71.71l1.76 1.76c.34.34.53.8.53 1.28v.13c0 .69-.39 1.31-1 1.62s-1 .93-1 1.62v.13c0 .48.19.94.53 1.28l.94.94c.34.34.8.53 1.28.53h.13c.69 0 1.31-.39 1.62-1s.93-1 1.62-1h.13c.48 0 .94.19 1.28.53z" fill="#ff826e"/></g></g><g><g><path d="m26 63h-20c-2.757 0-5-2.243-5-5v-40c0-2.757 2.243-5 5-5h6.045v2h-6.045c-1.654 0-3 1.346-3 3v40c0 1.654 1.346 3 3 3h20c1.654 0 3-1.346 3-3v-36.516h2v36.516c0 2.757-2.243 5-5 5z"/></g><g><path d="m2 21h14.676v2h-14.676z"/></g><g><path d="m2 53h28v2h-28z"/></g><g><path d="m12 57h8v2h-8z"/></g><g><path d="m5 57h2v2h-2z"/></g><g><path d="m25 57h2v2h-2z"/></g><g><path d="m17.726 47c-.629 0-1.259-.149-1.822-.43l-1.104-.552c-4.239-2.12-7.603-5.687-9.47-10.044-.219-.51-.33-1.05-.33-1.605 0-1.167.435-2.218 1.194-2.977l1.392-1.392c1.289-1.29 3.539-1.29 4.828 0l1.763 1.763c.531.53.823 1.236.823 1.987v.132c0 1.07-.595 2.033-1.553 2.512-.276.138-.447.416-.447.724v.132c0 .216.084.419.237.572l.94.94c.153.154.356.238.573.238h.132c.309 0 .586-.171.724-.447.479-.958 1.442-1.553 2.512-1.553h.132c.75 0 1.456.292 1.986.823l1.764 1.763c.645.645 1 1.502 1 2.414s-.355 1.77-1 2.414l-1.392 1.392c-.759.759-1.809 1.194-2.882 1.194zm-7.726-16c-.372 0-.737.151-1 .414l-1.392 1.392c-.386.386-.608.922-.608 1.468 0 .377.057.653.167.912 1.682 3.923 4.71 7.135 8.527 9.043l1.104.552c.775.388 1.784.224 2.396-.389l1.392-1.392c.263-.263.414-.628.414-1s-.151-.737-.414-1l-1.763-1.763c-.153-.153-.356-.237-.573-.237h-.132c-.309 0-.586.171-.724.447-.479.958-1.442 1.553-2.512 1.553h-.132c-.75 0-1.456-.292-1.986-.823l-.94-.94c-.532-.53-.824-1.236-.824-1.987v-.132c0-1.07.595-2.033 1.553-2.512.276-.138.447-.416.447-.724v-.132c0-.216-.084-.419-.237-.572l-1.763-1.764c-.263-.263-.628-.414-1-.414z"/></g><g><path d="m51 43c-2.757 0-5-2.243-5-5s2.243-5 5-5 5 2.243 5 5-2.243 5-5 5zm0-8c-1.654 0-3 1.346-3 3s1.346 3 3 3 3-1.346 3-3-1.346-3-3-3z"/></g><g><path d="m57.894 48.832c-.569-3.379-3.468-5.832-6.894-5.832s-6.325 2.453-6.894 5.832l-1.972-.332c.731-4.346 4.46-7.5 8.866-7.5s8.135 3.154 8.866 7.5z"/></g><g><path d="m51 53c-6.617 0-12-5.383-12-12s5.383-12 12-12 12 5.383 12 12-5.383 12-12 12zm0-22c-5.514 0-10 4.486-10 10s4.486 10 10 10 10-4.486 10-10-4.486-10-10-10z"/></g><g><path d="m51 15c-2.757 0-5-2.243-5-5s2.243-5 5-5 5 2.243 5 5-2.243 5-5 5zm0-8c-1.654 0-3 1.346-3 3s1.346 3 3 3 3-1.346 3-3-1.346-3-3-3z"/></g><g><path d="m57.894 20.832c-.569-3.379-3.468-5.832-6.894-5.832s-6.325 2.453-6.894 5.832l-1.972-.332c.731-4.346 4.46-7.5 8.866-7.5s8.135 3.154 8.866 7.5z"/></g><g><path d="m51 25c-6.617 0-12-5.383-12-12s5.383-12 12-12 12 5.383 12 12-5.383 12-12 12zm0-22c-5.514 0-10 4.486-10 10s4.486 10 10 10 10-4.486 10-10-4.486-10-10-10z"/></g><g><path d="m23 15c-2.757 0-5-2.243-5-5s2.243-5 5-5 5 2.243 5 5-2.243 5-5 5zm0-8c-1.654 0-3 1.346-3 3s1.346 3 3 3 3-1.346 3-3-1.346-3-3-3z"/></g><g><path d="m29.894 20.832c-.569-3.379-3.468-5.832-6.894-5.832s-6.325 2.453-6.894 5.832l-1.972-.332c.731-4.346 4.46-7.5 8.866-7.5s8.135 3.154 8.866 7.5z"/></g><g><path d="m23 25c-6.617 0-12-5.383-12-12s5.383-12 12-12 12 5.383 12 12-5.383 12-12 12zm0-22c-5.514 0-10 4.486-10 10s4.486 10 10 10 10-4.486 10-10-4.486-10-10-10z"/></g><g><path d="m34 12h6v2h-6z"/></g><g><path d="m50 24h2v6h-2z"/></g><g><path d="m27 33h-2v-2h2zm-4 0h-2v-2h2zm-4 0h-2v-2h2z"/></g></g></g></svg>